<svg width="2500" height="2500" viewBox="0 0 2500 2500" fill="none" xmlns="http://www.w3.org/2000/svg">
<mask id="mask0_709_47" style="mask-type:alpha" maskUnits="userSpaceOnUse" x="0" y="0" width="2500" height="2500">
<rect width="2500" height="2500" fill="#D9D9D9"/>
</mask>
<g mask="url(#mask0_709_47)">
</g>
<path d="M341.791 2238.11L159 4.1936L2342 8.68284L2148.72 2238.11L1258.74 2495.81L341.791 2238.11Z" fill="#0B2161"/>
<path d="M1258.74 2280.06V216.948L2157.71 219.941L1997.4 2065.81L1258.74 2280.06Z" fill="#0178F1"/>
<path d="M1934.47 480.651H551.553L589.016 750.322H1245.25L599.508 1027.51L636.954 1288.2H1588.37L1553.9 1652.27L1231.77 1715.21L939.616 1640.3L917.135 1433.53H648.943L684.892 1863.55L1260.24 2023.86L1811.62 1848.56L1882.04 1008.02H1299.18L1934.45 744.336L1934.47 480.651Z" fill="white"/>
</svg>
