<svg width="2500" height="2500" viewBox="0 0 2500 2500" fill="none" xmlns="http://www.w3.org/2000/svg">
<g clip-path="url(#clip0_704_111)">
<circle cx="1249" cy="1249" r="1250" fill="white"/>
<path d="M1168.22 1.9529C1162.85 2.44113 1145.76 4.14995 1130.38 5.37053C775.681 37.3498 443.438 228.737 233.01 522.898C115.834 686.456 40.8897 871.985 12.5721 1068.5C2.56336 1137.1 1.34277 1157.36 1.34277 1250.37C1.34277 1343.37 2.56336 1363.64 12.5721 1432.23C80.4366 1901.18 414.144 2295.19 866.737 2441.17C947.784 2467.29 1033.22 2485.11 1130.38 2495.85C1168.22 2500 1331.78 2500 1369.62 2495.85C1537.33 2477.3 1679.4 2435.8 1819.52 2364.27C1841.01 2353.29 1845.16 2350.36 1842.23 2347.92C1840.27 2346.45 1748.73 2223.66 1638.88 2075.24L1439.19 1805.49L1188.97 1435.16C1051.29 1231.57 938.019 1065.08 937.042 1065.08C936.066 1064.84 935.09 1229.37 934.601 1430.28C933.869 1782.05 933.625 1796.21 929.231 1804.51C922.884 1816.47 918.001 1821.36 907.748 1826.73C899.937 1830.63 893.102 1831.36 856.24 1831.36H814.008L802.778 1824.28C795.455 1819.65 790.084 1813.54 786.422 1806.46L781.296 1795.48L781.784 1306.02L782.517 816.326L790.084 806.806C793.99 801.679 802.29 795.088 808.149 791.915C818.158 787.032 822.063 786.544 864.296 786.544C914.096 786.544 922.396 788.497 935.334 802.656C938.995 806.562 1074.48 1010.64 1236.57 1256.47C1398.67 1502.29 1620.33 1837.96 1729.2 2002.73L1926.94 2302.27L1936.94 2295.67C2025.56 2238.06 2119.3 2156.04 2193.51 2070.6C2351.46 1889.22 2453.25 1668.05 2487.43 1432.23C2497.44 1363.64 2498.66 1343.37 2498.66 1250.37C2498.66 1157.36 2497.44 1137.1 2487.43 1068.5C2419.56 599.551 2085.86 205.546 1633.26 59.5645C1553.44 33.6881 1468.48 15.8676 1373.28 5.12641C1349.84 2.68525 1188.48 -3.74527e-05 1168.22 1.9529V1.9529ZM1679.4 757.25C1691.12 763.109 1700.64 774.338 1704.06 786.056C1706.01 792.403 1706.5 928.132 1706.01 1234.01L1705.28 1672.93L1627.89 1554.29L1550.26 1435.65V1116.59C1550.26 910.311 1551.24 794.356 1552.71 788.741C1556.61 775.071 1565.16 764.33 1576.87 757.983C1586.88 752.856 1590.54 752.368 1628.87 752.368C1665 752.368 1671.35 752.856 1679.4 757.25V757.25Z" fill="url(#paint0_linear_704_111)"/>
<path d="M1914.73 2307.64C1906.19 2313.01 1903.5 2316.67 1911.07 2312.52C1916.44 2309.34 1925.23 2302.75 1923.76 2302.51C1923.03 2302.51 1918.88 2304.95 1914.73 2307.64ZM1897.89 2318.62C1893.49 2322.04 1893.49 2322.28 1898.86 2319.6C1901.79 2318.13 1904.23 2316.42 1904.23 2315.94C1904.23 2313.98 1903.01 2314.47 1897.89 2318.62ZM1885.68 2325.94C1881.29 2329.36 1881.29 2329.61 1886.66 2326.92C1889.59 2325.46 1892.03 2323.75 1892.03 2323.26C1892.03 2321.31 1890.81 2321.79 1885.68 2325.94ZM1873.47 2333.27C1869.08 2336.69 1869.08 2336.93 1874.45 2334.24C1877.38 2332.78 1879.82 2331.07 1879.82 2330.58C1879.82 2328.63 1878.6 2329.12 1873.47 2333.27ZM1854.92 2343.03C1845.64 2347.92 1846.13 2349.87 1855.41 2345.23C1859.56 2343.03 1862.73 2340.84 1862.73 2340.35C1862.73 2338.64 1862.49 2338.88 1854.92 2343.03Z" fill="url(#paint1_linear_704_111)"/>
</g>
<defs>
<linearGradient id="paint0_linear_704_111" x1="1250" y1="1.28071" x2="399.033" y2="2164.16" gradientUnits="userSpaceOnUse">
<stop stop-color="#0178F1"/>
<stop offset="1" stop-color="#0B2161"/>
</linearGradient>
<linearGradient id="paint1_linear_704_111" x1="1886.06" y1="2302.51" x2="1875.94" y2="2345.48" gradientUnits="userSpaceOnUse">
<stop stop-color="#0178F1"/>
<stop offset="1" stop-color="#0B2161"/>
</linearGradient>
<clipPath id="clip0_704_111">
<rect width="2500" height="2500" fill="white"/>
</clipPath>
</defs>
</svg>
