<svg width="2500" height="2500" viewBox="0 0 2500 2500" fill="none" xmlns="http://www.w3.org/2000/svg">
<mask id="mask0_704_144" style="mask-type:alpha" maskUnits="userSpaceOnUse" x="0" y="0" width="2500" height="2500">
<rect width="2500" height="2500" fill="#D9D9D9"/>
</mask>
<g mask="url(#mask0_704_144)">
</g>
<path d="M2347 1250.22C2347 1104.88 2164.99 967.141 1885.93 881.725C1950.33 597.301 1921.71 371.014 1795.59 298.566C1766.52 281.572 1732.54 273.522 1695.42 273.522V373.25C1715.99 373.25 1732.54 377.275 1746.4 384.877C1807.22 419.759 1833.61 552.58 1813.03 723.413C1808.12 765.451 1800.07 809.724 1790.23 854.892C1702.57 833.426 1606.87 816.88 1506.25 806.147C1445.88 723.413 1383.27 648.282 1320.21 582.543C1466 447.039 1602.85 372.802 1695.87 372.802V273.075C1572.88 273.075 1411.89 360.728 1249.11 512.778C1086.32 361.622 925.327 274.864 802.345 274.864V374.591C894.917 374.591 1032.21 448.381 1178 582.99C1115.39 648.73 1052.78 723.413 993.303 806.147C892.234 816.88 796.532 833.426 708.879 855.339C698.593 810.619 690.991 767.239 685.624 725.649C664.605 554.816 690.543 421.995 750.916 386.666C764.333 378.616 781.774 375.039 802.345 375.039V275.311C764.78 275.311 730.792 283.361 701.276 300.355C575.611 372.802 547.437 598.642 612.282 882.172C334.119 968.036 153 1105.33 153 1250.22C153 1395.57 335.013 1533.31 614.071 1618.72C549.673 1903.15 578.294 2129.43 704.407 2201.88C733.475 2218.87 767.463 2226.92 805.029 2226.92C928.011 2226.92 1089.01 2139.27 1251.79 1987.22C1414.57 2138.38 1575.57 2225.14 1698.55 2225.14C1736.11 2225.14 1770.1 2217.09 1799.62 2200.09C1925.28 2127.64 1953.46 1901.8 1888.61 1618.28C2165.88 1532.86 2347 1395.12 2347 1250.22V1250.22ZM1764.74 951.936C1748.19 1009.63 1727.62 1069.1 1704.36 1128.58C1686.03 1092.81 1666.8 1057.03 1645.78 1021.25C1625.21 985.477 1603.29 950.595 1581.38 916.607C1644.88 925.998 1706.15 937.626 1764.74 951.936ZM1559.91 1428.21C1525.03 1488.59 1489.26 1545.83 1452.14 1599.05C1385.5 1604.86 1317.98 1607.99 1250 1607.99C1182.47 1607.99 1114.94 1604.86 1048.76 1599.49C1011.64 1546.27 975.415 1489.48 940.532 1429.55C906.545 1370.97 875.687 1311.49 847.513 1251.57C875.24 1191.64 906.545 1131.71 940.085 1073.13C974.968 1012.76 1010.74 955.514 1047.86 902.296C1114.5 896.482 1182.02 893.352 1250 893.352C1317.53 893.352 1385.06 896.482 1451.24 901.849C1488.36 955.067 1524.59 1011.86 1559.47 1071.79C1593.46 1130.37 1624.31 1189.85 1652.49 1249.78C1624.31 1309.7 1593.46 1369.63 1559.91 1428.21ZM1704.36 1370.08C1728.51 1430 1749.08 1489.93 1766.08 1548.06C1707.49 1562.37 1645.78 1574.45 1581.83 1583.84C1603.74 1549.41 1625.65 1514.08 1646.23 1477.85C1666.8 1442.08 1686.03 1405.85 1704.36 1370.08ZM1250.89 1847.25C1209.3 1804.31 1167.71 1756.46 1126.57 1704.14C1166.82 1705.93 1207.96 1707.27 1249.55 1707.27C1291.59 1707.27 1333.18 1706.38 1373.88 1704.14C1333.63 1756.46 1292.04 1804.31 1250.89 1847.25ZM918.172 1583.84C854.669 1574.45 793.401 1562.82 734.817 1548.51C751.364 1490.82 771.935 1431.34 795.19 1371.86C813.526 1407.64 832.755 1443.42 853.774 1479.19C874.793 1514.97 896.259 1549.85 918.172 1583.84ZM1248.66 653.202C1290.25 696.133 1331.84 743.985 1372.98 796.308C1332.73 794.519 1291.59 793.178 1250 793.178C1207.96 793.178 1166.37 794.072 1125.68 796.308C1165.93 743.985 1207.52 696.133 1248.66 653.202ZM917.725 916.607C895.812 951.042 873.899 986.371 853.327 1022.59C832.755 1058.37 813.526 1094.15 795.19 1129.92C771.041 1070 750.469 1010.07 733.475 951.936C792.06 938.073 853.774 925.998 917.725 916.607V916.607ZM513.002 1476.51C354.691 1408.98 252.28 1320.44 252.28 1250.22C252.28 1180.01 354.691 1091.02 513.002 1023.94C551.462 1007.39 593.499 992.632 636.879 978.769C662.369 1066.42 695.91 1157.65 737.5 1251.12C696.357 1344.14 663.264 1434.92 638.22 1522.13C593.947 1508.26 551.909 1493.06 513.002 1476.51ZM753.6 2115.57C692.78 2080.69 666.394 1947.87 686.966 1777.03C691.885 1735 699.935 1690.72 709.773 1645.55C797.426 1667.02 893.129 1683.57 993.75 1694.3C1054.12 1777.03 1116.73 1852.16 1179.79 1917.9C1034 2053.41 897.153 2127.64 804.134 2127.64C784.01 2127.2 767.016 2123.17 753.6 2115.57V2115.57ZM1814.38 1774.8C1835.39 1945.63 1809.46 2078.45 1749.08 2113.78C1735.67 2121.83 1718.23 2125.41 1697.65 2125.41C1605.08 2125.41 1467.79 2051.62 1322 1917.01C1384.61 1851.27 1447.22 1776.59 1506.7 1693.85C1607.77 1683.12 1703.47 1666.57 1791.12 1644.66C1801.41 1689.83 1809.46 1733.21 1814.38 1774.8V1774.8ZM1986.55 1476.51C1948.09 1493.06 1906.05 1507.82 1862.67 1521.68C1837.18 1434.03 1803.64 1342.8 1762.05 1249.33C1803.2 1156.31 1836.29 1065.53 1861.33 978.321C1905.61 992.185 1947.64 1007.39 1987 1023.94C2145.31 1091.46 2247.72 1180.01 2247.72 1250.22C2247.27 1320.44 2144.86 1409.43 1986.55 1476.51V1476.51Z" fill="url(#paint0_linear_704_144)"/>
<path d="M1249.55 1454.6C1362.43 1454.6 1453.93 1363.1 1453.93 1250.22C1453.93 1137.35 1362.43 1045.85 1249.55 1045.85C1136.68 1045.85 1045.18 1137.35 1045.18 1250.22C1045.18 1363.1 1136.68 1454.6 1249.55 1454.6Z" fill="url(#paint1_linear_704_144)"/>
<defs>
<linearGradient id="paint0_linear_704_144" x1="1250" y1="273.075" x2="640.339" y2="2013.34" gradientUnits="userSpaceOnUse">
<stop stop-color="#0178F1"/>
<stop offset="1" stop-color="#0B2161"/>
</linearGradient>
<linearGradient id="paint1_linear_704_144" x1="1249.55" y1="1045.85" x2="1110.31" y2="1399.82" gradientUnits="userSpaceOnUse">
<stop stop-color="#0178F1"/>
<stop offset="1" stop-color="#0B2161"/>
</linearGradient>
</defs>
</svg>
