<svg width="2500" height="2500" viewBox="0 0 2500 2500" fill="none" xmlns="http://www.w3.org/2000/svg">
<mask id="mask0_704_125" style="mask-type:alpha" maskUnits="userSpaceOnUse" x="0" y="0" width="2500" height="2500">
<rect width="2500" height="2500" fill="#D9D9D9"/>
</mask>
<g mask="url(#mask0_704_125)">
</g>
<path d="M2067.96 1162.66C2067.96 1053.38 1931.11 949.809 1721.27 885.582C1769.7 671.717 1748.18 501.566 1653.34 447.09C1631.49 434.312 1605.94 428.259 1578.02 428.259V503.247C1593.49 503.247 1605.94 506.273 1616.36 511.99C1662.09 538.218 1681.93 638.09 1666.46 766.543C1662.77 798.153 1656.71 831.443 1649.31 865.406C1583.4 849.265 1511.44 836.824 1435.78 828.753C1390.39 766.543 1343.31 710.051 1295.89 660.62C1405.52 558.731 1508.42 502.91 1578.36 502.91V427.923C1485.88 427.923 1364.83 493.831 1242.43 608.162C1120.03 494.504 998.974 429.268 906.502 429.268V504.255C976.108 504.255 1079.34 559.74 1188.96 660.956C1141.88 710.387 1094.81 766.543 1050.08 828.753C974.085 836.824 902.126 849.265 836.22 865.742C828.482 832.116 822.768 799.497 818.73 768.225C802.932 639.771 822.429 539.9 867.831 513.335C877.914 507.282 891.027 504.592 906.502 504.592V429.604C878.252 429.604 852.694 435.657 830.505 448.435C736.011 502.91 714.829 672.725 763.584 885.918C554.427 950.482 418.239 1053.72 418.239 1162.66C418.239 1271.96 555.099 1375.53 764.929 1439.75C716.505 1653.62 738.026 1823.76 832.859 1878.24C854.717 1891.02 880.267 1897.07 908.517 1897.07C1000.99 1897.07 1122.05 1831.16 1244.45 1716.83C1366.85 1830.49 1487.91 1895.73 1580.38 1895.73C1608.62 1895.73 1634.18 1889.68 1656.37 1876.89C1750.86 1822.42 1772.05 1652.6 1723.29 1439.42C1931.78 1375.19 2067.96 1271.62 2067.96 1162.66V1162.66ZM1630.15 938.376C1617.7 981.757 1602.24 1026.47 1584.75 1071.2C1570.96 1044.3 1556.5 1017.4 1540.7 990.495C1525.23 963.596 1508.75 937.367 1492.27 911.811C1540.02 918.872 1586.09 927.616 1630.15 938.376V938.376ZM1476.13 1296.5C1449.9 1341.9 1423.01 1384.94 1395.1 1424.96C1344.99 1429.33 1294.22 1431.68 1243.1 1431.68C1192.32 1431.68 1141.55 1429.33 1091.78 1425.29C1063.87 1385.27 1036.63 1342.57 1010.4 1297.51C984.845 1253.46 961.648 1208.73 940.459 1163.68C961.31 1118.62 984.845 1073.55 1010.07 1029.5C1036.3 984.111 1063.2 941.066 1091.11 901.05C1141.22 896.678 1191.99 894.325 1243.1 894.325C1293.88 894.325 1344.66 896.678 1394.42 900.714C1422.33 940.73 1449.57 983.434 1475.8 1028.5C1501.36 1072.54 1524.55 1117.27 1545.74 1162.33C1524.55 1207.39 1501.36 1252.45 1476.13 1296.5V1296.5ZM1584.75 1252.79C1602.4 1296.61 1617.89 1341.27 1631.16 1386.62C1587.1 1397.38 1540.7 1406.46 1492.61 1413.52C1509.09 1387.63 1525.56 1361.07 1541.04 1333.82C1556.5 1306.93 1570.96 1279.69 1584.75 1252.79ZM1243.77 1611.59C1212.5 1579.3 1181.23 1543.32 1150.29 1503.98C1180.56 1505.32 1211.49 1506.33 1242.76 1506.33C1274.37 1506.33 1305.65 1505.66 1336.25 1503.98C1307.39 1541.49 1276.51 1577.41 1243.77 1611.59V1611.59ZM993.59 1413.52C945.843 1406.46 899.772 1397.72 855.724 1386.95C868.161 1343.58 883.636 1298.85 901.118 1254.13C914.909 1281.03 929.368 1307.94 945.166 1334.83C960.972 1361.74 977.115 1387.96 993.59 1413.52ZM1242.09 713.75C1273.37 746.031 1304.64 782.012 1335.57 821.355C1305.31 820.01 1274.37 819.002 1243.1 819.002C1211.49 819.002 1180.22 819.674 1149.62 821.355C1178.48 783.846 1209.35 747.926 1242.09 713.75V713.75ZM993.252 911.811C976.777 937.703 960.302 964.268 944.835 991.502C929.368 1018.41 914.909 1045.31 901.118 1072.21C883.465 1028.38 867.979 983.72 854.717 938.376C898.765 927.952 945.166 918.872 993.252 911.811V911.811ZM688.932 1332.82C569.896 1282.04 492.89 1215.46 492.89 1162.66C492.89 1109.87 569.896 1042.96 688.932 992.517C717.851 980.073 749.462 968.976 782.081 958.552C801.248 1024.46 826.467 1093.06 857.74 1163.34C826.805 1233.28 801.917 1301.54 783.089 1367.12C749.801 1356.69 718.19 1345.26 688.932 1332.82ZM869.846 1813.34C824.114 1787.11 804.27 1687.24 819.745 1558.78C823.444 1527.18 829.49 1493.89 836.889 1459.92C902.803 1476.07 974.762 1488.51 1050.42 1496.58C1095.81 1558.78 1142.89 1615.28 1190.31 1664.71C1080.69 1766.6 977.785 1822.42 907.84 1822.42C892.712 1822.09 879.937 1819.06 869.846 1813.34V1813.34ZM1667.47 1557.11C1683.27 1685.56 1663.77 1785.43 1618.37 1812C1608.29 1818.05 1595.18 1820.74 1579.7 1820.74C1510.1 1820.74 1406.86 1765.26 1297.24 1664.04C1344.32 1614.61 1391.4 1558.45 1436.12 1496.24C1512.12 1488.17 1584.08 1475.73 1649.98 1459.25C1657.72 1493.22 1663.77 1525.84 1667.47 1557.11ZM1796.93 1332.82C1768.01 1345.26 1736.4 1356.36 1703.78 1366.78C1684.62 1300.87 1659.4 1232.28 1628.12 1161.99C1659.07 1092.05 1683.95 1023.79 1702.78 958.215C1736.07 968.64 1767.67 980.073 1797.27 992.517C1916.31 1043.29 1993.31 1109.87 1993.31 1162.66C1992.97 1215.46 1915.97 1282.38 1796.93 1332.82V1332.82Z" fill="url(#paint0_linear_704_125)"/>
<path d="M1242.76 1316.34C1327.64 1316.34 1396.44 1247.54 1396.44 1162.66C1396.44 1077.79 1327.64 1008.99 1242.76 1008.99C1157.89 1008.99 1089.09 1077.79 1089.09 1162.66C1089.09 1247.54 1157.89 1316.34 1242.76 1316.34V1316.34ZM493.15 2161.66H442.421V2249.03H413.794V2033.06H485.289C509.614 2033.06 528.304 2038.6 541.357 2049.68C554.509 2060.75 561.085 2076.87 561.085 2098.03C561.085 2111.48 557.426 2123.2 550.108 2133.19C542.89 2143.17 532.803 2150.64 519.849 2155.58L570.578 2247.25V2249.03H540.022L493.15 2161.66ZM442.421 2138.38H486.179C500.32 2138.38 511.543 2134.71 519.849 2127.4C528.254 2120.08 532.457 2110.29 532.457 2098.03C532.457 2084.68 528.452 2074.45 520.443 2067.33C512.532 2060.21 501.061 2056.6 486.03 2056.5H442.421V2138.38ZM663.435 2252C641.677 2252 623.976 2244.88 610.33 2230.64C596.683 2216.3 589.86 2197.16 589.86 2173.24V2168.19C589.86 2152.27 592.876 2138.08 598.908 2125.62C605.039 2113.06 613.544 2103.27 624.421 2096.25C635.398 2089.13 647.264 2085.57 660.02 2085.57C680.887 2085.57 697.106 2092.44 708.671 2106.19C720.243 2119.93 726.025 2139.61 726.025 2165.22V2176.64H617.301C617.697 2192.47 622.295 2205.28 631.096 2215.07C639.996 2224.75 651.269 2229.6 664.916 2229.6C674.608 2229.6 682.812 2227.62 689.534 2223.67C696.264 2219.71 702.144 2214.47 707.189 2207.94L723.95 2221C710.498 2241.66 690.331 2252 663.435 2252V2252ZM660.02 2108.12C648.945 2108.12 639.65 2112.17 632.134 2120.28C624.619 2128.29 619.971 2139.56 618.191 2154.1H698.587V2152.02C697.798 2138.08 694.038 2127.3 687.316 2119.68C680.586 2111.98 671.488 2108.12 660.02 2108.12V2108.12ZM857.003 2249.03C855.416 2245.86 854.131 2240.23 853.146 2232.12C840.385 2245.37 825.159 2252 807.459 2252C791.638 2252 778.637 2247.55 768.449 2238.65C758.365 2229.65 753.32 2218.28 753.32 2204.53C753.32 2187.82 759.651 2174.87 772.306 2165.67C785.059 2156.37 802.962 2151.72 826.001 2151.72H852.702V2139.12C852.702 2129.53 849.829 2121.91 844.1 2116.28C838.363 2110.54 829.903 2107.68 818.73 2107.68C808.94 2107.68 800.736 2110.14 794.112 2115.09C787.487 2120.03 784.171 2126.02 784.171 2133.04H756.583C756.583 2125.03 759.403 2117.32 765.035 2109.89C770.772 2102.38 778.487 2096.45 788.179 2092.1C797.969 2087.75 808.692 2085.57 820.362 2085.57C838.859 2085.57 853.341 2090.22 863.823 2099.52C874.305 2108.71 879.741 2121.42 880.14 2137.63V2211.5C880.14 2226.24 882.019 2237.95 885.779 2246.65V2249.03H857.003ZM811.466 2228.12C820.068 2228.12 828.227 2225.89 835.941 2221.44C843.649 2216.99 849.236 2211.21 852.702 2204.09V2171.16H831.189C797.571 2171.16 780.758 2181 780.758 2200.67C780.758 2209.28 783.63 2216.01 789.36 2220.85C795.097 2225.69 802.466 2228.12 811.466 2228.12V2228.12ZM987.53 2229.6C997.32 2229.6 1005.88 2226.63 1013.19 2220.7C1020.51 2214.76 1024.56 2207.35 1025.35 2198.45H1051.32C1050.82 2207.64 1047.65 2216.4 1041.82 2224.71C1035.98 2233.01 1028.17 2239.64 1018.38 2244.58C1008.69 2249.53 998.41 2252 987.53 2252C965.679 2252 948.272 2244.73 935.316 2230.19C922.466 2215.55 916.037 2195.58 916.037 2170.27V2165.67C916.037 2150.05 918.901 2136.15 924.639 2123.99C930.376 2111.83 938.579 2102.38 949.264 2095.66C960.039 2088.93 972.747 2085.57 987.379 2085.57C1005.38 2085.57 1020.31 2090.96 1032.18 2101.74C1044.14 2112.52 1050.52 2126.51 1051.32 2143.72H1025.35C1024.56 2133.33 1020.61 2124.83 1013.49 2118.2C1006.47 2111.48 997.763 2108.12 987.379 2108.12C973.439 2108.12 962.611 2113.16 954.896 2123.25C947.287 2133.23 943.474 2147.72 943.474 2166.71V2171.9C943.474 2190.39 947.287 2204.63 954.896 2214.61C962.513 2224.61 973.393 2229.6 987.53 2229.6V2229.6ZM1119.39 2049.68V2088.54H1149.36V2109.75H1119.39V2209.28C1119.39 2215.7 1120.73 2220.55 1123.4 2223.81C1126.07 2226.98 1130.62 2228.56 1137.05 2228.56C1140.21 2228.56 1144.56 2227.97 1150.1 2226.78V2249.03C1142.88 2251.01 1135.86 2252 1129.03 2252C1116.78 2252 1107.53 2248.29 1101.3 2240.87C1095.07 2233.46 1091.96 2222.92 1091.96 2209.28V2109.75H1062.73V2088.54H1091.96V2049.68H1119.39ZM1427.18 2249.03H1398.55L1289.83 2082.61V2249.03H1261.2V2033.06H1289.83L1398.85 2200.23V2033.06H1427.18V2249.03ZM1572.54 2249.03C1570.96 2245.86 1569.67 2240.23 1568.69 2232.12C1555.93 2245.37 1540.7 2252 1523 2252C1507.18 2252 1494.17 2247.55 1483.99 2238.65C1473.91 2229.65 1468.86 2218.28 1468.86 2204.53C1468.86 2187.82 1475.18 2174.87 1487.85 2165.67C1500.6 2156.37 1518.5 2151.72 1541.54 2151.72H1568.24V2139.12C1568.24 2129.53 1565.37 2121.91 1559.63 2116.28C1553.9 2110.54 1545.44 2107.68 1534.27 2107.68C1524.48 2107.68 1516.28 2110.14 1509.65 2115.09C1503.03 2120.03 1499.71 2126.02 1499.71 2133.04H1472.12C1472.12 2125.03 1474.94 2117.32 1480.57 2109.89C1486.31 2102.38 1494.03 2096.45 1503.72 2092.1C1513.51 2087.75 1524.23 2085.57 1535.9 2085.57C1554.39 2085.57 1568.88 2090.22 1579.36 2099.52C1589.84 2108.71 1595.28 2121.42 1595.68 2137.63V2211.5C1595.68 2226.24 1597.56 2237.95 1601.32 2246.65V2249.03H1572.54ZM1527.01 2228.12C1535.61 2228.12 1543.77 2225.89 1551.48 2221.44C1559.19 2216.99 1564.78 2211.21 1568.24 2204.09V2171.16H1546.73C1513.11 2171.16 1496.3 2181 1496.3 2200.67C1496.3 2209.28 1499.17 2216.01 1504.9 2220.85C1510.64 2225.69 1518.01 2228.12 1527.01 2228.12ZM1675.92 2049.68V2088.54H1705.89V2109.75H1675.92V2209.28C1675.92 2215.7 1677.26 2220.55 1679.93 2223.81C1682.6 2226.98 1687.15 2228.56 1693.58 2228.56C1696.74 2228.56 1701.09 2227.97 1706.63 2226.78V2249.03C1699.41 2251.01 1692.39 2252 1685.56 2252C1673.31 2252 1664.06 2248.29 1657.83 2240.87C1651.6 2233.46 1648.49 2222.92 1648.49 2209.28V2109.75H1619.27V2088.54H1648.49V2049.68H1675.92ZM1767.89 2249.03H1740.45V2088.54H1767.89V2249.03ZM1738.22 2045.97C1738.22 2041.52 1739.56 2037.76 1742.23 2034.69C1745 2031.63 1749.05 2030.1 1754.39 2030.1C1759.73 2030.1 1763.79 2031.63 1766.55 2034.69C1769.32 2037.76 1770.71 2041.52 1770.71 2045.97C1770.71 2050.42 1769.32 2054.12 1766.55 2057.09C1763.79 2060.06 1759.73 2061.54 1754.39 2061.54C1749.05 2061.54 1745 2060.06 1742.23 2057.09C1739.56 2054.12 1738.22 2050.42 1738.22 2045.97ZM1864.9 2211.8L1904.65 2088.54H1932.68L1875.13 2249.03H1854.21L1796.08 2088.54H1824.11L1864.9 2211.8ZM2023.61 2252C2001.85 2252 1984.15 2244.88 1970.51 2230.64C1956.86 2216.3 1950.04 2197.16 1950.04 2173.24V2168.19C1950.04 2152.27 1953.05 2138.08 1959.08 2125.62C1965.21 2113.06 1973.72 2103.27 1984.6 2096.25C1995.58 2089.13 2007.44 2085.57 2020.19 2085.57C2041.06 2085.57 2057.28 2092.44 2068.85 2106.19C2080.42 2119.93 2086.21 2139.61 2086.21 2165.22V2176.64H1977.48C1977.88 2192.47 1982.47 2205.28 1991.27 2215.07C2000.17 2224.75 2011.45 2229.6 2025.09 2229.6C2034.78 2229.6 2042.99 2227.62 2049.71 2223.67C2056.44 2219.71 2062.32 2214.47 2067.37 2207.94L2084.13 2221C2070.68 2241.66 2050.5 2252 2023.61 2252V2252ZM2020.19 2108.12C2009.13 2108.12 1999.82 2112.17 1992.31 2120.28C1984.79 2128.29 1980.15 2139.56 1978.37 2154.1H2058.76V2152.02C2057.97 2138.08 2054.21 2127.3 2047.49 2119.68C2040.77 2111.98 2031.67 2108.12 2020.19 2108.12V2108.12Z" fill="url(#paint1_linear_704_125)"/>
<defs>
<linearGradient id="paint0_linear_704_125" x1="1243.1" y1="427.923" x2="784.684" y2="1736.47" gradientUnits="userSpaceOnUse">
<stop stop-color="#0178F1"/>
<stop offset="1" stop-color="#0B2161"/>
</linearGradient>
<linearGradient id="paint1_linear_704_125" x1="1250" y1="1008.99" x2="915.19" y2="2154.11" gradientUnits="userSpaceOnUse">
<stop stop-color="#0178F1"/>
<stop offset="1" stop-color="#0B2161"/>
</linearGradient>
</defs>
</svg>
