<svg width="2500" height="2500" viewBox="0 0 2500 2500" fill="none" xmlns="http://www.w3.org/2000/svg">
<mask id="mask0_709_52" style="mask-type:alpha" maskUnits="userSpaceOnUse" x="0" y="0" width="2500" height="2500">
<rect width="2500" height="2500" fill="#D9D9D9"/>
</mask>
<g mask="url(#mask0_709_52)">
</g>
<path d="M409 495.071L1313 277L2086 495.071L2342 1161.99V1376.5L2250 1848.74L409 1987V495.071Z" fill="white"/>
<path d="M829.153 1527.51C789.483 1552.31 729.713 1592.51 683.474 1636.23C607.563 1707.91 591.678 1807.36 631.723 1830.59C668.766 1852.06 755.247 1826.51 817.141 1758.99C882.098 1688.11 908.887 1598.26 881.22 1496.26C877.969 1498.2 874.779 1500.14 871.648 1501.95L871.716 1502.1L867.518 1504.47C851.369 1514.11 838.171 1522.07 829.153 1527.5V1527.51ZM1943.94 1495.32C1921.47 1544.17 1920.34 1559.87 1927.17 1564.77C1959.77 1553.06 2013.72 1524.83 2014.14 1449.17C2014.21 1437.84 2011.71 1425.69 2007.7 1412.98C1972.84 1443.85 1952.75 1476.16 1943.94 1495.32ZM2293.81 1347.68C2206.7 1337.53 2138.73 1349.75 2085.99 1371.72C2095.75 1397.15 2103.26 1423.62 2104.32 1450.3C2106.77 1508.85 2066.47 1552.18 2024.47 1583.12C1999.94 1601.15 1973.84 1613.18 1951.93 1620.44C1934.42 1627.81 1911.14 1635.45 1894.61 1632.08C1858.18 1624.68 1838.79 1592.32 1863.58 1520.94C1876.96 1482.31 1915.57 1423.51 1977.9 1372.85C1963.7 1343.6 1947.86 1313.81 1939.79 1286.43C1923.89 1232.46 1919.09 1199.84 1919.09 1199.84C1919.09 1199.84 1867.71 1306.36 1801.43 1403.22C1797.61 1408.85 1793.8 1414.36 1789.98 1419.87C1803 1450.13 1813.25 1482.12 1814.64 1514.37C1817.08 1572.92 1791.73 1617.18 1749.68 1648.05C1726.91 1664.84 1702.62 1676.43 1681.78 1683.81C1668.45 1689.62 1641.35 1699.2 1602.8 1701.78C1581.72 1703.22 1561.44 1701.92 1550.12 1693.33C1534.53 1681.56 1532.66 1667.02 1540.73 1647.18C1547.55 1630.32 1598.61 1572.04 1641.42 1521C1652.83 1507.34 1663.88 1493.4 1674.58 1479.18L1674.34 1478.61C1674.34 1478.61 1682.09 1468.6 1694.67 1451.13C1679.03 1417.43 1659.19 1382.37 1649.87 1350.57C1633.97 1296.59 1629.15 1263.97 1629.15 1263.97C1629.15 1263.97 1577.08 1397.47 1522.83 1504.03C1480.85 1586.57 1452.8 1636.59 1440.17 1658.52L1440.04 1659.4C1440.04 1659.4 1438.16 1662.6 1434.91 1667.6L1432.47 1671.67L1432.41 1671.29C1418.32 1692.09 1386.72 1732.83 1355.31 1732.83C1269.08 1732.83 1300.74 1557.7 1300.74 1557.7C1300.74 1557.7 1275.53 1622.58 1247.11 1678.24C1223.96 1723.63 1202.87 1762.09 1156.75 1762.09C1143.49 1762.09 1122.46 1761.71 1104.99 1745.11C1065.38 1707.48 1035.1 1611.92 1041.04 1537.91C1046.1 1474.99 1055.8 1431.39 1069.07 1395.03C1042.56 1409.46 1016.27 1424.3 990.223 1439.56L947.414 1464.78L948.796 1467.29C984.209 1535.8 993.662 1685.89 916.437 1801.09C839.22 1916.37 695.477 1986.5 555.428 1947.56C510.238 1934.97 441.971 1841.49 500.854 1711.18C552.792 1596.27 760.366 1487.64 815.068 1460.53L830.083 1452.25C721.02 1356.83 448.668 1228.09 410.499 1030.35C399.733 974.679 425.83 841.549 589.28 688.524C726.761 559.839 918.006 461.277 1094.67 398.47C1391.47 292.973 1705.07 355.2 1753.31 544.44C1800.74 730.541 1639.3 953.147 1432.53 1033.17C1247.93 1104.61 1095.29 1093.28 1032.59 1072.69C961.311 1049.27 919.508 1002.24 909.313 975.686C905.303 965.287 898.41 947.823 909.313 941.817C916.002 938.114 918.689 939.002 936.587 958.786C953.616 977.572 1022.07 1027.97 1152.11 1013.39C1493.36 975.132 1698.92 709.81 1633.97 567.039C1588.48 467.113 1325.46 422.025 996.852 585.893C595.721 785.883 573.95 950.758 570.512 1013.38C561.119 1185.64 782.957 1276.25 902.991 1404.36L907.615 1409.43C930.078 1397.04 953.804 1383.95 977.077 1371.18C1025.11 1344.79 1073.17 1318.47 1121.26 1292.2C1163.51 1230.8 1249.23 1163.03 1311.13 1163.03C1410.06 1163.03 1376.08 1305.23 1376.08 1305.23C1376.08 1305.23 1378.09 1298.73 1380.78 1298.66C1383.59 1298.59 1394.49 1279.93 1425.03 1291.07C1456.44 1302.6 1449.3 1324.65 1449.49 1326.9C1449.87 1331.27 1412.38 1457.69 1396.81 1538.79C1389.35 1577.49 1393.67 1605.68 1395.87 1605.68C1398.93 1605.68 1405.19 1595.83 1411.01 1585.26L1410.88 1584.95C1410.88 1584.95 1415.26 1576.93 1422.59 1562.53L1424.03 1559.52L1424.09 1559.66C1436.22 1535.73 1447.82 1511.53 1458.88 1487.08C1486.35 1426.54 1591.16 1192.77 1600.05 1166.92C1608.94 1141.06 1613.57 1114.32 1617.95 1102.85C1622.27 1091.4 1659.32 1082.75 1702.62 1083.07C1745.92 1083.38 1750.32 1101.86 1750.61 1105.68C1750.93 1109.49 1730.03 1160.79 1725.21 1197.04C1720.46 1233.3 1725.03 1251.38 1728.97 1281.82C1731.54 1301.72 1743.99 1326.97 1758.7 1355.57C1803.51 1282.31 1882.34 1142.18 1889.92 1102.92C1895.11 1076.06 1903.43 1050.33 1907.82 1038.85C1912.2 1027.39 1949.19 1018.76 1992.48 1019.07C2035.79 1019.39 2040.16 1037.86 2040.48 1041.68C2040.8 1045.5 2019.83 1096.79 2015.07 1133.05C2010.31 1169.23 2014.89 1187.39 2018.83 1217.83C2022.21 1243.87 2042.36 1278.87 2062.33 1318.69C2116.83 1291.83 2180.97 1273.8 2256.07 1273.43C2287.17 1273.24 2323.28 1276.36 2341.93 1282.18V683.141C2341.93 640.877 2320.27 601.923 2283.67 580.826L1306.44 15.9973C1288.54 5.62842 1268.22 0.168213 1247.53 0.168213C1226.84 0.168213 1206.51 5.62842 1188.61 15.9973L214.076 580.553C177.528 601.659 158 640.664 158 682.859V1812.99C158 1855.19 177.647 1894.2 214.136 1915.3L1190.24 2480.28C1208.05 2490.68 1228.31 2496.16 1248.93 2496.16C1269.56 2496.16 1289.82 2490.68 1307.63 2480.28L2284.18 1915.29C2320.71 1894.13 2342 1855.17 2342 1812.99V1356.26C2329.6 1352.61 2311.46 1349.73 2293.81 1347.67V1347.68ZM1242.48 1288.49C1221.52 1311.97 1185.79 1372.53 1169.08 1423.2C1135.85 1523.81 1150.24 1626.07 1173.77 1632.22C1201.24 1639.41 1246.31 1504.91 1267.88 1452.31C1281.4 1419.36 1333.97 1273.16 1322.46 1253.63C1313.46 1238.35 1276.22 1250.69 1242.48 1288.5V1288.49ZM1622.66 1627.63C1622.66 1627.63 1616.03 1633.91 1618.9 1635.65C1622.78 1637.97 1631.17 1634.96 1640.3 1630.2C1666.15 1613.93 1724.16 1573.35 1724.29 1513.3C1724.29 1511.54 1724.22 1509.85 1724.1 1508.04C1712.11 1523.76 1699.93 1539.33 1687.55 1554.74C1669.28 1577.48 1622.66 1627.63 1622.66 1627.63Z" fill="url(#paint0_linear_709_52)"/>
<defs>
<linearGradient id="paint0_linear_709_52" x1="1250" y1="0.168165" x2="316.524" y2="2076.49" gradientUnits="userSpaceOnUse">
<stop stop-color="#0178F1"/>
<stop offset="1" stop-color="#0B2161"/>
</linearGradient>
</defs>
</svg>
