<svg width="2500" height="2500" viewBox="0 0 2500 2500" fill="none" xmlns="http://www.w3.org/2000/svg">
<mask id="mask0_704_124" style="mask-type:alpha" maskUnits="userSpaceOnUse" x="0" y="0" width="2500" height="2500">
<rect width="2500" height="2500" fill="#D9D9D9"/>
</mask>
<g mask="url(#mask0_704_124)">
</g>
<g clip-path="url(#clip0_704_124)">
<path d="M1250 500C916.789 500 708.543 666.559 625.232 999.646C750.198 833.087 895.976 770.651 1062.57 812.275C1157.63 836.024 1225.56 904.992 1300.78 981.302C1423.28 1105.61 1565.06 1249.48 1874.77 1249.48C2207.95 1249.48 2416.23 1082.93 2499.51 749.807C2374.57 916.366 2228.79 978.834 2062.17 937.21C1967.14 913.46 1899.21 844.493 1823.99 768.182C1701.49 643.872 1559.68 500 1250 500V500ZM625.232 1249.48C292.052 1249.48 83.7746 1416.04 0.495117 1749.16C125.43 1582.6 271.208 1520.13 437.83 1561.79C532.859 1585.57 600.795 1654.51 676.012 1730.79C798.51 1855.1 940.319 1999 1250 1999C1583.21 1999 1791.46 1832.44 1874.77 1499.32C1749.8 1665.88 1604.02 1728.35 1437.43 1686.69C1342.37 1662.98 1274.44 1593.98 1199.22 1517.7C1076.72 1393.39 934.944 1249.48 625.232 1249.48V1249.48Z" fill="url(#paint0_linear_704_124)"/>
</g>
<defs>
<linearGradient id="paint0_linear_704_124" x1="1250" y1="500" x2="914.942" y2="1919.94" gradientUnits="userSpaceOnUse">
<stop stop-color="#0178F1"/>
<stop offset="1" stop-color="#0B2161"/>
</linearGradient>
<clipPath id="clip0_704_124">
<rect width="2500" height="1499" fill="white" transform="translate(0 500)"/>
</clipPath>
</defs>
</svg>
